<?xml version="1.0" encoding="utf-8"?>
<!-- Generator: Adobe Illustrator 15.0.0, SVG Export Plug-In . SVG Version: 6.00 Build 0)  -->
<!DOCTYPE svg PUBLIC "-//W3C//DTD SVG 1.0//EN" "http://www.w3.org/TR/2001/REC-SVG-20010904/DTD/svg10.dtd">
<svg version="1.0" id="Calque_1" xmlns="http://www.w3.org/2000/svg" xmlns:xlink="http://www.w3.org/1999/xlink" x="0px" y="0px"
	 width="248.438px" height="247.965px" viewBox="0 0 248.438 247.965" enable-background="new 0 0 248.438 247.965"
	 xml:space="preserve">
<circle fill="#4464C0" cx="-223.417" cy="98.034" r="123"/>
<circle fill="#4464C0" cx="124.438" cy="124.094" r="123"/>
<circle fill="#4464C0" cx="900.035" cy="116.728" r="123"/>
<g>
	<path fill="none" stroke="#FFFFFF" stroke-width="5.7" stroke-miterlimit="10" d="M-253.716,76.355h61.502 M-253.716,92.445h33.546
		"/>
	<path fill="none" stroke="#FFFFFF" stroke-width="5.7" stroke-miterlimit="10" d="M-276.072,131.236
		c-6.46,0-11.703-5.203-11.703-11.696V49.807c0-6.467,5.242-11.703,11.703-11.703h105.306c6.464,0,11.705,5.204,11.705,11.703
		v69.732c0,6.462-5.263,11.696-11.692,11.696h-20.2v23.401c0,3.238-2.156,4.4-4.862,2.584l-38.618-25.985H-276.072z"/>
</g>
<g>
	<polygon fill="#FFFFFF" points="156.338,159.696 153.314,157.289 128.69,137.646 125.963,185.708 139.813,174.36 152.149,201.751 
		161.155,197.704 148.833,170.328 167.091,168.27 	"/>
</g>
<polyline fill="none" stroke="#FFFFFF" stroke-width="5.7" stroke-linecap="round" stroke-miterlimit="10" points="153.217,113.45 
	122.178,113.45 122.178,68.715 "/>
<path fill="none" stroke="#FFFFFF" stroke-width="5.7" stroke-linecap="round" stroke-miterlimit="10" d="M108.568,164.899
	c-23.885-5.981-41.573-27.588-41.573-53.326c0-30.359,24.611-54.971,54.97-54.971c30.359,0,54.971,24.611,54.971,54.971
	c0,13.167-4.63,25.252-12.351,34.718"/>
<g>
	<path fill="none" stroke="#FFFFFF" stroke-width="5.7" stroke-linecap="round" stroke-miterlimit="10" d="M860.299,115.345
		c0-5.347,4.344-9.682,9.681-9.682c5.346,0,9.684,4.344,9.684,9.682c0,5.346-4.347,9.681-9.684,9.681
		C864.634,125.026,860.299,120.682,860.299,115.345z"/>
	<path fill="none" stroke="#FFFFFF" stroke-width="5.7" stroke-linecap="round" stroke-miterlimit="10" d="M890.724,115.345
		c0-5.347,4.344-9.682,9.681-9.682c5.345,0,9.683,4.344,9.683,9.682c0,5.346-4.346,9.681-9.683,9.681
		C895.059,125.026,890.724,120.682,890.724,115.345z"/>
	<path fill="none" stroke="#FFFFFF" stroke-width="5.7" stroke-linecap="round" stroke-miterlimit="10" d="M860.299,145.539
		c0-5.345,4.344-9.681,9.681-9.681c5.346,0,9.684,4.344,9.684,9.681c0,5.347-4.347,9.682-9.684,9.682
		C864.634,155.22,860.299,150.876,860.299,145.539z"/>
	<path fill="none" stroke="#FFFFFF" stroke-width="5.7" stroke-linecap="round" stroke-miterlimit="10" d="M890.724,145.539
		c0-5.345,4.344-9.681,9.681-9.681c5.345,0,9.683,4.344,9.683,9.681c0,5.347-4.346,9.682-9.683,9.682
		C895.059,155.22,890.724,150.876,890.724,145.539z"/>
	<g>
		<path fill="none" stroke="#FFFFFF" stroke-width="5.7" stroke-linecap="round" stroke-miterlimit="10" d="M839.186,66.947
			c0-6.112,4.959-11.068,11.067-11.068h99.564c6.112,0,11.068,4.958,11.068,11.068v99.562c0,6.114-4.959,11.07-11.068,11.07h-99.564
			c-6.111,0-11.067-4.959-11.067-11.07V66.947z"/>
		
			<line fill="none" stroke="#FFFFFF" stroke-width="5.7" stroke-linecap="round" stroke-miterlimit="10" x1="865.409" y1="83.261" x2="933.921" y2="83.261"/>
		<path fill="none" stroke="#FFFFFF" stroke-width="5.7" stroke-linecap="round" stroke-miterlimit="10" d="M921.148,115.345
			c0-5.347,4.344-9.682,9.681-9.682c5.345,0,9.683,4.344,9.683,9.682c0,5.346-4.347,9.681-9.683,9.681
			C925.483,125.026,921.148,120.682,921.148,115.345z"/>
		<path fill="none" stroke="#FFFFFF" stroke-width="5.7" stroke-linecap="round" stroke-miterlimit="10" d="M922.161,145.539
			c0-5.345,4.346-9.681,9.681-9.681c5.349,0,9.684,4.344,9.684,9.681c0,5.347-4.344,9.682-9.684,9.682
			C926.497,155.22,922.161,150.876,922.161,145.539z"/>
	</g>
</g>
</svg>
