<?xml version="1.0" encoding="utf-8"?>
<!-- Generator: Adobe Illustrator 15.0.0, SVG Export Plug-In . SVG Version: 6.00 Build 0)  -->
<!DOCTYPE svg PUBLIC "-//W3C//DTD SVG 1.0//EN" "http://www.w3.org/TR/2001/REC-SVG-20010904/DTD/svg10.dtd">
<svg version="1.0" id="Calque_1" xmlns="http://www.w3.org/2000/svg" xmlns:xlink="http://www.w3.org/1999/xlink" x="0px" y="0px"
	 width="248.438px" height="247.965px" viewBox="0 0 248.438 247.965" enable-background="new 0 0 248.438 247.965"
	 xml:space="preserve">
<circle fill="#4464C0" cx="-699.417" cy="98.034" r="123"/>
<circle fill="#4464C0" cx="-351.562" cy="124.094" r="123"/>
<circle fill="#4464C0" cx="124.035" cy="123.728" r="123"/>
<g>
	<path fill="none" stroke="#FFFFFF" stroke-width="5.7" stroke-miterlimit="10" d="M-729.716,76.355h61.502 M-729.716,92.445h33.546
		"/>
	<path fill="none" stroke="#FFFFFF" stroke-width="5.7" stroke-miterlimit="10" d="M-752.072,131.236
		c-6.46,0-11.703-5.203-11.703-11.696V49.807c0-6.467,5.242-11.703,11.703-11.703h105.306c6.464,0,11.705,5.204,11.705,11.703
		v69.732c0,6.462-5.263,11.696-11.692,11.696h-20.2v23.401c0,3.238-2.156,4.4-4.862,2.584l-38.618-25.985H-752.072z"/>
</g>
<g>
	<polygon fill="#FFFFFF" points="-319.662,159.696 -322.686,157.289 -347.31,137.646 -350.037,185.708 -336.187,174.36 
		-323.851,201.751 -314.845,197.704 -327.167,170.328 -308.909,168.27 	"/>
</g>
<polyline fill="none" stroke="#FFFFFF" stroke-width="5.7" stroke-linecap="round" stroke-miterlimit="10" points="-322.783,113.45 
	-353.822,113.45 -353.822,68.715 "/>
<path fill="none" stroke="#FFFFFF" stroke-width="5.7" stroke-linecap="round" stroke-miterlimit="10" d="M-367.432,164.899
	c-23.885-5.981-41.573-27.588-41.573-53.326c0-30.359,24.611-54.971,54.97-54.971c30.359,0,54.971,24.611,54.971,54.971
	c0,13.167-4.63,25.252-12.351,34.718"/>
<g>
	<path fill="none" stroke="#FFFFFF" stroke-width="5.7" stroke-linecap="round" stroke-miterlimit="10" d="M84.299,122.345
		c0-5.347,4.344-9.682,9.681-9.682c5.346,0,9.684,4.344,9.684,9.682c0,5.346-4.347,9.681-9.684,9.681
		C88.634,132.026,84.299,127.682,84.299,122.345z"/>
	<path fill="none" stroke="#FFFFFF" stroke-width="5.7" stroke-linecap="round" stroke-miterlimit="10" d="M114.724,122.345
		c0-5.347,4.344-9.682,9.681-9.682c5.345,0,9.683,4.344,9.683,9.682c0,5.346-4.346,9.681-9.683,9.681
		C119.059,132.026,114.724,127.682,114.724,122.345z"/>
	<path fill="none" stroke="#FFFFFF" stroke-width="5.7" stroke-linecap="round" stroke-miterlimit="10" d="M84.299,152.539
		c0-5.345,4.344-9.681,9.681-9.681c5.346,0,9.684,4.344,9.684,9.681c0,5.347-4.347,9.682-9.684,9.682
		C88.634,162.22,84.299,157.876,84.299,152.539z"/>
	<path fill="none" stroke="#FFFFFF" stroke-width="5.7" stroke-linecap="round" stroke-miterlimit="10" d="M114.724,152.539
		c0-5.345,4.344-9.681,9.681-9.681c5.345,0,9.683,4.344,9.683,9.681c0,5.347-4.346,9.682-9.683,9.682
		C119.059,162.22,114.724,157.876,114.724,152.539z"/>
	<g>
		<path fill="none" stroke="#FFFFFF" stroke-width="5.7" stroke-linecap="round" stroke-miterlimit="10" d="M63.186,73.947
			c0-6.112,4.959-11.068,11.067-11.068h99.564c6.112,0,11.068,4.958,11.068,11.068v99.562c0,6.114-4.959,11.07-11.068,11.07H74.253
			c-6.111,0-11.067-4.959-11.067-11.07V73.947z"/>
		
			<line fill="none" stroke="#FFFFFF" stroke-width="5.7" stroke-linecap="round" stroke-miterlimit="10" x1="89.409" y1="90.261" x2="157.921" y2="90.261"/>
		<path fill="none" stroke="#FFFFFF" stroke-width="5.7" stroke-linecap="round" stroke-miterlimit="10" d="M145.148,122.345
			c0-5.347,4.344-9.682,9.681-9.682c5.345,0,9.683,4.344,9.683,9.682c0,5.346-4.347,9.681-9.683,9.681
			C149.483,132.026,145.148,127.682,145.148,122.345z"/>
		<path fill="none" stroke="#FFFFFF" stroke-width="5.7" stroke-linecap="round" stroke-miterlimit="10" d="M146.161,152.539
			c0-5.345,4.346-9.681,9.681-9.681c5.349,0,9.684,4.344,9.684,9.681c0,5.347-4.344,9.682-9.684,9.682
			C150.497,162.22,146.161,157.876,146.161,152.539z"/>
	</g>
</g>
</svg>
