<?xml version="1.0" encoding="utf-8"?>
<!-- Generator: Adobe Illustrator 15.0.0, SVG Export Plug-In . SVG Version: 6.00 Build 0)  -->
<!DOCTYPE svg PUBLIC "-//W3C//DTD SVG 1.1//EN" "http://www.w3.org/Graphics/SVG/1.1/DTD/svg11.dtd">
<svg version="1.1" id="Calque_1" xmlns="http://www.w3.org/2000/svg" xmlns:xlink="http://www.w3.org/1999/xlink" x="0px" y="0px"
	 width="248.438px" height="247.965px" viewBox="0 0 248.438 247.965" enable-background="new 0 0 248.438 247.965"
	 xml:space="preserve">
<circle fill="#4464C0" cx="-223.417" cy="98.034" r="123"/>
<circle fill="#4464C0" cx="124.02" cy="123.708" r="123"/>
<circle fill="#4464C0" cx="900.035" cy="116.728" r="123"/>
<g>
	<path fill="none" stroke="#FFFFFF" stroke-width="5.7" stroke-miterlimit="10" d="M-253.716,76.355h61.502 M-253.716,92.445h33.546
		"/>
	<path fill="none" stroke="#FFFFFF" stroke-width="5.7" stroke-miterlimit="10" d="M-276.072,131.236
		c-6.46,0-11.703-5.203-11.703-11.696V49.807c0-6.467,5.242-11.703,11.703-11.703h105.306c6.465,0,11.705,5.204,11.705,11.703
		v69.732c0,6.462-5.263,11.695-11.691,11.695h-20.2v23.401c0,3.238-2.156,4.4-4.862,2.584l-38.618-25.985h-41.639V131.236z"/>
</g>
<g>
	<path fill="none" stroke="#FFFFFF" stroke-width="5.7" stroke-linecap="round" stroke-miterlimit="10" d="M860.299,115.345
		c0-5.347,4.344-9.682,9.682-9.682c5.346,0,9.684,4.344,9.684,9.682c0,5.346-4.347,9.681-9.684,9.681
		C864.634,125.025,860.299,120.682,860.299,115.345z"/>
	<path fill="none" stroke="#FFFFFF" stroke-width="5.7" stroke-linecap="round" stroke-miterlimit="10" d="M890.724,115.345
		c0-5.347,4.345-9.682,9.682-9.682c5.345,0,9.683,4.344,9.683,9.682c0,5.346-4.346,9.681-9.683,9.681
		C895.059,125.025,890.724,120.682,890.724,115.345z"/>
	<path fill="none" stroke="#FFFFFF" stroke-width="5.7" stroke-linecap="round" stroke-miterlimit="10" d="M860.299,145.539
		c0-5.346,4.344-9.682,9.682-9.682c5.346,0,9.684,4.345,9.684,9.682c0,5.347-4.347,9.682-9.684,9.682
		C864.634,155.22,860.299,150.876,860.299,145.539z"/>
	<path fill="none" stroke="#FFFFFF" stroke-width="5.7" stroke-linecap="round" stroke-miterlimit="10" d="M890.724,145.539
		c0-5.346,4.345-9.682,9.682-9.682c5.345,0,9.683,4.345,9.683,9.682c0,5.347-4.346,9.682-9.683,9.682
		C895.059,155.22,890.724,150.876,890.724,145.539z"/>
	<g>
		<path fill="none" stroke="#FFFFFF" stroke-width="5.7" stroke-linecap="round" stroke-miterlimit="10" d="M839.186,66.947
			c0-6.112,4.959-11.068,11.067-11.068h99.564c6.111,0,11.067,4.958,11.067,11.068v99.562c0,6.114-4.959,11.07-11.067,11.07h-99.564
			c-6.111,0-11.067-4.959-11.067-11.07V66.947z"/>
		
			<line fill="none" stroke="#FFFFFF" stroke-width="5.7" stroke-linecap="round" stroke-miterlimit="10" x1="865.409" y1="83.261" x2="933.921" y2="83.261"/>
		<path fill="none" stroke="#FFFFFF" stroke-width="5.7" stroke-linecap="round" stroke-miterlimit="10" d="M921.149,115.345
			c0-5.347,4.344-9.682,9.681-9.682c5.345,0,9.683,4.344,9.683,9.682c0,5.346-4.347,9.681-9.683,9.681
			C925.484,125.025,921.149,120.682,921.149,115.345z"/>
		<path fill="none" stroke="#FFFFFF" stroke-width="5.7" stroke-linecap="round" stroke-miterlimit="10" d="M922.161,145.539
			c0-5.346,4.346-9.682,9.681-9.682c5.35,0,9.685,4.345,9.685,9.682c0,5.347-4.345,9.682-9.685,9.682
			C926.497,155.22,922.161,150.876,922.161,145.539z"/>
	</g>
</g>
<path fill="none" stroke="#000000" stroke-width="5.6027" stroke-linecap="round" stroke-linejoin="round" stroke-miterlimit="14" d="
	M-159.585,126.484c0,3.094-2.508,5.604-5.604,5.604h-116.722c-3.094,0-5.603-2.511-5.603-5.604V42.909
	c0-3.094,2.508-5.603,5.603-5.603h116.722c3.097,0,5.604,2.509,5.604,5.603V126.484z"/>
<path d="M-159.584,79.724h-127.877c-1.517,0-2.747-3.599-2.747-8.038s1.23-8.038,2.747-8.038h127.877
	c1.516,0,2.746,3.599,2.746,8.038S-158.068,79.724-159.584,79.724z"/>
<rect x="-233.51" y="104.142" width="22.645" height="13.073"/>
<rect x="-196.624" y="104.142" width="22.645" height="13.073"/>
<g>
	<path fill="none" stroke="#FFFFFF" stroke-width="5.7" stroke-linecap="round" stroke-linejoin="round" stroke-miterlimit="14" d="
		M187.958,165.495c0,3.094-2.508,5.604-5.604,5.604H65.63c-3.094,0-5.603-2.511-5.603-5.604V81.92c0-3.094,2.509-5.603,5.603-5.603
		h116.725c3.096,0,5.604,2.509,5.604,5.603V165.495z"/>
	<path fill="#FFFFFF" d="M187.96,118.734H60.081c-1.517,0-2.747-3.599-2.747-8.038c0-4.438,1.23-8.037,2.747-8.037H187.96
		c1.516,0,2.746,3.599,2.746,8.037C190.706,115.136,189.476,118.734,187.96,118.734z"/>
	<rect x="114.032" y="143.152" fill="#FFFFFF" width="22.646" height="13.073"/>
	<rect x="150.919" y="143.152" fill="#FFFFFF" width="22.645" height="13.073"/>
</g>
</svg>
